<?xml version="1.0" encoding="UTF-8"?><!DOCTYPE svg PUBLIC "-//W3C//DTD SVG 1.1//EN" "http://www.w3.org/Graphics/SVG/1.1/DTD/svg11.dtd"><svg xmlns="http://www.w3.org/2000/svg">
<symbol id="icon-arrow-down-fat" viewBox="0 0 8 6">
    <path d="M.626.96a1 1 0 0 1 1.32-.084L2.04.96 4 2.919 5.96.959A1 1 0 0 1 7.28.877l.094.084a1 1 0 0 1 .083 1.32l-.083.094L4.707 5.04a1 1 0 0 1-1.32.084l-.094-.084L.626 2.374a1 1 0 0 1 0-1.414z"/>
</symbol>
<symbol id="icon-arrow-left" viewBox="0 0 6 10">
    <path d="M5.707 9.707a1 1 0 0 1-1.32.083l-.094-.083-4-4a1 1 0 0 1-.083-1.32l.083-.094 4-4a1 1 0 0 1 1.497 1.32l-.083.094L2.415 5l3.292 3.293a1 1 0 0 1 .083 1.32l-.083.094z"/>
</symbol>
<symbol id="icon-arrow-next-fat" viewBox="0 0 13 10">
    <path d="M8.613.2l.094.083 4 4c.028.028.055.06.08.1l-.08-.1a1.01 1.01 0 0 1 .097.112l.05.075.02.037.03.06.022.052.022.06.014.046.016.065.01.052.007.06.003.055v.076l-.003.052L13 5a1.01 1.01 0 0 1-.011.149l-.01.052-.015.065-.014.046-.02.06-.023.052-.03.06-.02.036-.05.074-.013.018-.083.094-4 4a1 1 0 0 1-1.497-1.32l.083-.094L9.585 6H1.67a1 1 0 0 1-.117-1.993L1.67 4h7.914L7.293 1.707A1 1 0 0 1 7.21.387l.083-.094A1 1 0 0 1 8.613.21z"/>
</symbol>
<symbol id="icon-arrow-next" viewBox="0 0 12 10">
    <path d="M6.976 9.354a.5.5 0 0 1-.058-.638l.058-.07L10.124 5.5H1.001a.5.5 0 0 1-.09-.992l.1-.008h9.113L6.976 1.354a.5.5 0 0 1-.058-.638l.058-.07a.5.5 0 0 1 .638-.058l.07.058 4.011 4.014a.319.319 0 0 1 .033.04l-.045-.05a.5.5 0 0 1 .069.087l.02.035.02.042.014.04.012.046.006.03a.51.51 0 0 1 .006.058v.022c0 .02-.002.042-.005.063L11.83 5c0 .035-.004.07-.011.105l-.012.046-.015.04-.02.04-.02.035-.01.017-.013.018a.304.304 0 0 1-.033.04l-.012.012-4 4a.5.5 0 0 1-.707 0l-.001.001z"/>
</symbol>
<symbol id="icon-arrow-prev" viewBox="0 0 12 10">
    <path d="M5.354.646a.5.5 0 0 1 .058.638l-.058.07L2.206 4.5h9.123a.5.5 0 0 1 .09.992l-.1.008H2.206l3.148 3.146a.5.5 0 0 1 .058.638l-.058.07a.5.5 0 0 1-.638.058l-.07-.058L.635 5.34a.319.319 0 0 1-.033-.04l.045.05a.5.5 0 0 1-.069-.087l-.02-.035-.02-.042-.014-.04L.512 5.1l-.006-.03A.51.51 0 0 1 .5 5.012V4.99c0-.02.002-.042.005-.063L.5 5a.5.5 0 0 1 .011-.105l.012-.046.015-.04.02-.04.02-.035.01-.017.013-.018a.304.304 0 0 1 .033-.04l.012-.012 4-4a.5.5 0 0 1 .707 0z"/>
</symbol>
<symbol id="icon-arrow-right" viewBox="0 0 6 10">
    <path d="M.293.293A1 1 0 0 1 1.613.21l.094.083 4 4a1 1 0 0 1 .083 1.32l-.083.094-4 4A1 1 0 0 1 .21 8.387l.083-.094L3.585 5 .293 1.707A1 1 0 0 1 .21.387L.293.293z"/>
</symbol>
<symbol id="icon-arrow-up-fat" viewBox="0 0 8 6">
    <path d="M7.374 5.04a1 1 0 0 1-1.32.084L5.96 5.04 4 3.081l-1.96 1.96a1 1 0 0 1-1.32.083L.626 5.04a1 1 0 0 1-.083-1.32l.083-.094L3.293.96a1 1 0 0 1 1.32-.084l.094.084 2.667 2.666a1 1 0 0 1 0 1.414z"/>
</symbol>
<symbol id="icon-arrows" viewBox="0 0 10 16">
    <path d="M1.613 10.2l.094.083L5 13.585l3.293-3.292a1 1 0 0 1 1.32-.083l.094.083a1 1 0 0 1 .083 1.32l-.083.094-4 4a1 1 0 0 1-1.32.083l-.094-.083-4-4a1 1 0 0 1 1.32-1.497zm4-10l.094.083 4 4a1 1 0 0 1-1.32 1.497l-.094-.083L5 2.415 1.707 5.707a1 1 0 0 1-1.32.083l-.094-.083a1 1 0 0 1-.083-1.32l.083-.094 4-4A1 1 0 0 1 5.613.21z"/>
</symbol>
<symbol id="icon-bag" viewBox="0 0 20 21">
    <path d="M9.83.028c2.62 0 4.778 1.99 5.043 4.54h.074c1.797 0 3.3 1.36 3.82 3.73l.8 6.286c.463 3.96-1.79 6.167-5.563 6.167H5.656c-4.078 0-6.162-1.958-5.494-6.41l.784-6.082c.433-2.34 1.976-3.69 3.813-3.69a5.078 5.078 0 0 1 1.466-3.063A5.07 5.07 0 0 1 9.831.028zm5.117 6.04H4.77c-1.098 0-2.034.818-2.332 2.42l-.78 6.057c-.522 3.48.78 4.704 4.01 4.704h8.348c2.98 0 4.5-1.54 4.043-4.72L17.3 8.555c-.363-1.65-1.29-2.487-2.343-2.487zm-2.15 2.784a.75.75 0 0 1 .102 1.493l-.102.007h-.046a.75.75 0 0 1-.102-1.493l.102-.007h.046zm-5.83 0a.75.75 0 0 1 .102 1.493l-.102.007H6.92a.75.75 0 0 1-.102-1.493l.102-.007h.046zm2.862-7.324a3.57 3.57 0 0 0-3.546 3.04h7.08a3.572 3.572 0 0 0-3.534-3.04z"/>
</symbol>
<symbol id="icon-bell" viewBox="0 0 22 24">
    <path d="M13.855 21.9a2.992 2.992 0 0 1-5.71 0c.894.066 1.844.1 2.855.1a38.81 38.81 0 0 0 2.855-.1zM11 0a8 8 0 0 1 8 8v3c0 1.118.37 1.866 1.25 2.863l.663.74.193.23c.586.719.894 1.372.894 2.167 0 1.84-2.217 3.071-5.804 3.64l-.578.083c-.196.027-.396.051-.6.073l-.62.062c-.316.029-.64.053-.97.073l-.67.033c-.34.015-.688.025-1.042.03L11 21l-.716-.006c-.354-.005-.701-.015-1.041-.03l-.671-.033c-.33-.02-.654-.044-.97-.073l-.62-.062a26.768 26.768 0 0 1-.6-.073l-.578-.084C2.217 20.071 0 18.84 0 17c0-.795.308-1.448.894-2.168l.093-.113.212-.243.42-.465.3-.344C2.68 12.764 3 12.044 3 11V8a8 8 0 0 1 8-8zm0 2a6 6 0 0 0-6 6v3c0 1.69-.577 2.857-1.75 4.187l-.76.855-.146.18C2.096 16.55 2 16.778 2 17c0 .306.439.64 1.237.948l.316.113.349.11c.06.019.123.037.186.054l.396.104.21.05.442.097.231.046.485.087c.167.028.338.055.513.08l.54.073c.092.012.185.023.279.033l.578.06.602.05.31.022.638.035.66.024.68.012L11 19l.348-.002.68-.012.66-.024.322-.016.626-.04.602-.051.292-.029.566-.064.539-.072c.175-.026.346-.053.513-.08l.485-.088.231-.046.442-.096.21-.05.396-.105.186-.053.35-.11.315-.114C19.561 17.64 20 17.306 20 17c0-.25-.122-.509-.445-.905l-.238-.275-.567-.633C17.577 13.857 17 12.69 17 11V8a6 6 0 0 0-6-6z"/>
</symbol>
<symbol id="icon-box" viewBox="0 0 18 16">
    <path d="M14.5 5.5a1 1 0 0 1 .993.883l.007.117v8a1 1 0 0 1-.883.993l-.117.007h-11a1 1 0 0 1-.993-.883L2.5 14.5v-8a1 1 0 0 1 1.993-.117L4.5 6.5v7h9v-7a1 1 0 0 1 .883-.993L14.5 5.5zm-3 1a1 1 0 0 1 1 1v3a1 1 0 0 1-1 1h-5a1 1 0 0 1-1-1v-3a1 1 0 0 1 1-1zm-1 2h-3v1h3v-1zm6-8a1 1 0 0 1 1 1v3a1 1 0 0 1-1 1h-15a1 1 0 0 1-1-1v-3a1 1 0 0 1 1-1zm-1 2h-13v1h13v-1z"/>
</symbol>
<symbol id="icon-chart" viewBox="0 0 22 22">
    <path d="M15.686.25c3.646 0 6.064 2.598 6.064 6.335v8.83c0 3.737-2.42 6.335-6.064 6.335h-9.37C2.67 21.75.25 19.152.25 15.415v-8.83C.25 2.85 2.675.25 6.314.25zm0 1.5h-9.37c-2.786 0-4.564 1.907-4.564 4.835v8.83c0 2.932 1.772 4.835 4.564 4.835h9.37c2.792 0 4.564-1.903 4.564-4.835v-8.83c0-2.932-1.772-4.835-4.564-4.835zM6.37 8.452a.75.75 0 0 1 .743.648l.007.102v6.86a.75.75 0 0 1-1.493.102l-.007-.102v-6.86a.75.75 0 0 1 .75-.75zm4.667-3.283a.75.75 0 0 1 .743.648l.007.102v10.143a.75.75 0 0 1-1.493.102l-.007-.102V5.92a.75.75 0 0 1 .75-.75zm4.59 6.908a.75.75 0 0 1 .743.648l.007.102v3.235a.75.75 0 0 1-1.493.102l-.007-.102v-3.235a.75.75 0 0 1 .75-.75z"/>
</symbol>
<symbol id="icon-chat" viewBox="0 0 22 22">
    <path d="M11.062.25A10.766 10.766 0 0 1 21.07 7.242a10.74 10.74 0 0 1-2.975 11.829 10.78 10.78 0 0 1-12.128 1.441l-.05-.017-.01-.013-.734-.415a.73.73 0 0 0-.416-.045 19.02 19.02 0 0 1-2.334.674l-.145.017c-.87.02-1.3-.546-1.3-1.37l.02-.176c.198-.818.446-1.624.728-2.37a.56.56 0 0 0-.046-.436l-.198-.385A10.731 10.731 0 0 1 1.82 5.4 10.77 10.77 0 0 1 11.062.25zm-.01 1.5l-.302.004a9.27 9.27 0 0 0-7.649 4.437 9.24 9.24 0 0 0-.296 9.096l.194.38c.26.484.313 1.05.136 1.618a19.05 19.05 0 0 0-.688 2.236l.1-.395.425-.11.438-.127.443-.14.45-.155c.475-.13.98-.1 1.48.105l.083.04.198.106.57.326.02.005-.013-.002.31.155a9.28 9.28 0 0 0 9.918-1.183l.237-.2a9.24 9.24 0 0 0 2.56-10.177 9.266 9.266 0 0 0-8.613-6.017zM6.287 9.774c.677 0 1.227.55 1.227 1.226a1.228 1.228 0 0 1-2.454 0c0-.678.55-1.226 1.227-1.226zm4.77 0c.677 0 1.227.55 1.227 1.226a1.228 1.228 0 0 1-2.454 0c0-.678.55-1.226 1.227-1.226zm4.77 0c.677 0 1.227.55 1.227 1.226a1.228 1.228 0 0 1-2.454 0c0-.678.55-1.226 1.227-1.226zm-9.54.952a.274.274 0 1 0 .001.547.274.274 0 0 0-.001-.547zm4.77 0a.274.274 0 1 0 .001.547.274.274 0 0 0-.001-.547zm4.77 0a.274.274 0 1 0 .001.547.274.274 0 0 0-.001-.547z"/>
</symbol>
<symbol id="icon-close" viewBox="0 0 13 13">
    <path fillRule="evenodd" d="M12.48 2.08a.75.75 0 1 0-1.06-1.06L6.822 5.616 2.227 1.02a.75.75 0 0 0-1.06 1.06l4.596 4.597-4.597 4.596a.75.75 0 1 0 1.061 1.06l4.596-4.596 4.596 4.597a.75.75 0 0 0 1.061-1.061L7.884 6.677 12.48 2.08z"/>
</symbol>
<symbol id="icon-comment" viewBox="0 0 12 12">
    <path d="M6 0C2.7 0 0 2.325 0 5.25s2.7 5.25 6 5.25c.3 0 .6 0 .825-.075L10.5 12V8.7c.9-.9 1.5-2.1 1.5-3.45C12 2.325 9.3 0 6 0z"/>
</symbol>
<symbol id="icon-discovery" viewBox="0 0 21 21">
    <path d="M10.61.25c5.722 0 10.36 4.64 10.36 10.36s-4.64 10.36-10.36 10.36S.25 16.333.25 10.61 4.89.25 10.61.25zm0 1.5a8.86 8.86 0 1 0 0 17.72 8.86 8.86 0 0 0 0-17.72zm3.117 4.804a.75.75 0 0 1 .94.94l-1.593 5.09a.75.75 0 0 1-.492.492l-5.09 1.593a.75.75 0 0 1-.94-.94l1.593-5.09a.75.75 0 0 1 .492-.492zm-.92 1.86L9.46 9.46l-1.048 3.347 3.347-1.048 1.048-3.347z"/>
</symbol>
<symbol id="icon-document" viewBox="0 0 19 20">
    <path d="M12.91 0c3.182 0 5.257 2.142 5.257 5.357v9.196c0 3.197-2.057 5.335-5.22 5.354l-7.69.003c-3.182 0-5.256-2.14-5.256-5.357V5.357C.001 2.16 2.057.023 5.22.004zm0 1.5l-7.685.004C2.902 1.518 1.5 2.974 1.5 5.357v9.196c0 2.398 1.414 3.857 3.756 3.857l7.685-.003c2.323-.014 3.725-1.47 3.725-3.854V5.357c0-2.397-1.414-3.857-3.757-3.857zm-.193 11.974a.75.75 0 0 1 .102 1.493l-.102.007h-7.22a.75.75 0 0 1-.102-1.493l.102-.007h7.22zm0-4.187a.75.75 0 0 1 .102 1.493l-.102.007h-7.22a.75.75 0 0 1-.102-1.493l.102-.007h7.22zM8.25 5.1a.75.75 0 0 1 .102 1.493L8.25 6.6H5.496a.75.75 0 0 1-.102-1.493l.102-.007H8.25z"/>
</symbol>
<symbol id="icon-dots-border" viewBox="0 0 24 6">
    <path d="M12 0a3 3 0 1 1 0 6 3 3 0 0 1 0-6zM3 0a3 3 0 1 1 0 6 3 3 0 0 1 0-6zm18 0a3 3 0 1 1 0 6 3 3 0 0 1 0-6zm-9 2a1 1 0 1 0 0 2 1 1 0 0 0 0-2zM3 2a1 1 0 1 0 0 2 1 1 0 0 0 0-2zm18 0a1 1 0 1 0 0 2 1 1 0 0 0 0-2z"/>
</symbol>
<symbol id="icon-download-fat" viewBox="0 0 17 18">
    <path d="M15.5 15.5a1 1 0 0 1 .117 1.993l-.117.007h-14a1 1 0 0 1-.117-1.993L1.5 15.5h14zm-7-15a1 1 0 0 1 .993.883L9.5 1.5v8.585l3.293-3.292a1 1 0 0 1 1.32-.083l.094.083a1 1 0 0 1 .083 1.32l-.083.094-5 5a.556.556 0 0 1-.1.08l.1-.08a1.01 1.01 0 0 1-.112.097l-.075.05-.037.02-.06.03-.052.022-.06.022-.046.014-.065.016-.052.01-.063.007-.053.003h-.064l-.054-.003.086.004a1.01 1.01 0 0 1-.149-.011l-.052-.01-.065-.015-.046-.014-.06-.02-.052-.023-.06-.03-.036-.02-.074-.05-.018-.013a.99.99 0 0 1-.094-.083l-5-5a1 1 0 0 1 1.32-1.497l.094.083L7.5 10.085V1.5a1 1 0 0 1 1-1z"/>
</symbol>
<symbol id="icon-download" viewBox="0 0 18 19">
    <path d="M17 17a1 1 0 0 1 .117 1.993L17 19H1a1 1 0 0 1-.117-1.993L1 17h16zM9 0a1 1 0 0 1 .993.883L10 1v9.585l4.293-4.292a1 1 0 0 1 1.32-.083l.094.083a1 1 0 0 1 .083 1.32l-.083.094-6 6a1 1 0 0 1-1.32.083l-.094-.083-6-6a1 1 0 0 1 1.32-1.497l.094.083L8 10.585V1a1 1 0 0 1 1-1z"/>
</symbol>
<symbol id="icon-edit" viewBox="0 0 18 18">
    <path d="M11.793.793a1 1 0 0 1 1.414 0l4 4a1 1 0 0 1 0 1.414l-10 10a1 1 0 0 1-.51.274l-5 1a1 1 0 0 1-1.178-1.177l1-5a1 1 0 0 1 .274-.511zM9.999 5.414l-6.578 6.579-.647 3.232 3.232-.646L12.586 8 9.998 5.414zM12.5 2.915L11.414 4 14 6.585 15.085 5.5 12.5 2.915z"/>
</symbol>
<symbol id="icon-editor-bold" viewBox="0 0 10 12">
    <path fillRule="evenodd" clip-rule="evenodd" d="M7.67 5.487a2.612 2.612 0 0 0 1.064-2.405C8.586 1.729 7.357.75 5.997.75H.5v.75l1.085.543a.75.75 0 0 1 .415.67v6.573a.75.75 0 0 1-.415.671L.5 10.5v.75h5.867c1.578 0 2.985-1.16 3.121-2.733a3 3 0 0 0-1.817-3.03zM4.25 2.25H5a1.5 1.5 0 1 1 0 3h-.75v-3zm0 4.5v3h1.5a1.5 1.5 0 0 0 0-3h-1.5z"/>
</symbol>
<symbol id="icon-editor-italic" viewBox="0 0 6 12">
    <path d="M6 1.5V0H1.5v1.5h.953c.228 0 .404.202.371.428L1.692 9.856a.75.75 0 0 1-.743.644H0V12h4.5v-1.5h-.953a.375.375 0 0 1-.371-.428l1.132-7.928a.75.75 0 0 1 .743-.644H6z"/>
</symbol>
<symbol id="icon-editor-pic" viewBox="0 0 14 13">
    <path fillRule="evenodd" clip-rule="evenodd" d="M1.75 3h10.5a.709.709 0 0 1 .75.75v7.5a.708.708 0 0 1-.75.75H1.75a.709.709 0 0 1-.75-.75v-7.5A.709.709 0 0 1 1.75 3zm.75 7.5h9v-6h-9v6z"/>
    <path d="M2.5 0h9v1.5h-9z"/>
    <path d="M4.75 9.75L8.5 6l2.25 3.75h-6z"/>
    <circle cx="4.75" cy="6.75" r=".75"/>
</symbol>
<symbol id="icon-editor-smile" viewBox="0 0 12 12">
    <path d="M6 9.75c1.275 0 2.25-.975 2.25-2.25h-4.5c0 1.275.975 2.25 2.25 2.25z"/>
    <path fillRule="evenodd" clip-rule="evenodd" d="M12 3.75c0-.75-.6-1.425-1.35-1.5A5.937 5.937 0 0 0 6 0C4.2 0 2.475.825 1.35 2.25.6 2.325 0 3 0 3.75V6c0 3.3 2.7 6 6 6s6-2.7 6-6V3.75zm-1.5.75v.75H8.25v-1.5h2.25v.75zM8.25 2.25h.225C7.725 1.8 6.9 1.5 6 1.5c-.9 0-1.725.3-2.475.75h.225c.825 0 1.5.675 1.5 1.5h1.5c0-.825.675-1.5 1.5-1.5zM1.5 3.75h2.25v1.5H1.5v-1.5zm.075 3C1.95 8.85 3.75 10.5 6 10.5s4.05-1.65 4.425-3.75H8.25c-.825 0-1.5-.675-1.5-1.5h-1.5c0 .825-.675 1.5-1.5 1.5H1.575z"/>
</symbol>
<symbol id="icon-folder" viewBox="0 0 19 18">
    <path d="M7.143.146c.835 0 1.62.393 2.121 1.06l.76 1.012c.219.29.56.46.923.461h2.358c3.334 0 4.842 1.767 4.842 5.319l-.023 4.134c0 3.396-2.093 5.488-5.489 5.488H6.147C2.745 17.62.65 15.53.65 12.131V5.636C.65 2.081 2.191.146 5.478.146zm0 1.5H5.478c-2.374 0-3.328 1.198-3.328 3.99v6.496c0 2.568 1.423 3.988 3.997 3.988h6.488c2.568 0 3.99-1.42 3.99-3.993l.022-4.134c0-2.767-.894-3.814-3.342-3.814h-2.36a2.66 2.66 0 0 1-2.12-1.06l-.76-1.012a1.152 1.152 0 0 0-.922-.46zm6.238 8.678a.75.75 0 0 1 .102 1.493l-.102.007H5.386a.75.75 0 0 1-.102-1.493l.102-.007h7.995z"/>
</symbol>
<symbol id="icon-like" viewBox="0 0 12 12">
    <path d="M10.5 4.5H6v-3C6 .6 5.4 0 4.5 0L2.25 5.25H.75C.3 5.25 0 5.55 0 6v5.25c0 .45.3.75.75.75H9c1.05 0 2.025-.75 2.175-1.8l.75-3.9c.225-.9-.45-1.8-1.425-1.8z"/>
</symbol>
<symbol id="icon-logout" viewBox="0 0 21 21">
    <path d="M14.334.25c3.486 0 5.916 2.262 5.916 5.666v8.67c0 3.404-2.43 5.665-5.916 5.665H6.166C2.683 20.25.25 17.982.25 14.585v-8.67C.25 2.512 2.68.25 6.166.25zm0 1.5H6.166c-2.68 0-4.416 1.615-4.416 4.166v8.67c0 2.544 1.74 4.165 4.416 4.165h8.168c2.68 0 4.416-1.615 4.416-4.165v-8.67c0-2.55-1.735-4.166-4.416-4.166zM10.46 5.973a.75.75 0 0 1 .071.977l-.073.084L7.977 9.5h6.36a.75.75 0 0 1 .102 1.493l-.102.007H7.98l2.477 2.467a.75.75 0 0 1 .075.976l-.072.084a.75.75 0 0 1-.976.075L9.4 14.53l-3.765-3.75a.77.77 0 0 1-.066-.076l.066.076a.715.715 0 0 1-.097-.118l-.028-.047-.017-.03-.028-.064-.012-.034-.018-.064-.008-.036-.008-.06-.004-.06v-.034l.004-.06-.004.078c0-.047.004-.093.013-.137l.007-.035.018-.063.013-.037.026-.058.02-.037.03-.046.023-.034.007-.008a.909.909 0 0 1 .066-.075h.001L9.4 5.97a.75.75 0 0 1 1.061.002z"/>
</symbol>
<symbol id="icon-message" viewBox="0 0 21 19">
    <path d="M15.316.25a5.71 5.71 0 0 1 4.13 1.83 5.737 5.737 0 0 1 1.526 4.214l-.001 6.484a5.772 5.772 0 0 1-1.525 4.258 5.71 5.71 0 0 1-4.13 1.83H5.888c-3.276 0-5.638-2.642-5.638-6.044V6.294C.25 2.892 2.612.25 5.888.25zm0 1.5H5.888C3.48 1.75 1.75 3.685 1.75 6.294v6.528c0 2.61 1.73 4.544 4.138 4.544h9.42c1.153-.013 2.25-.5 3.038-1.35s1.196-1.99 1.126-3.194l.001-6.572c.068-1.16-.34-2.3-1.127-3.15s-1.885-1.337-3.03-1.35zm1.536 4.34a.75.75 0 0 1-.033.979l-.08.076-4.273 3.44a2.971 2.971 0 0 1-3.51.117l-.166-.12-4.302-3.434a.75.75 0 0 1 .844-1.235l.092.063 4.297 3.43c.494.388 1.17.417 1.687.094l.126-.088 4.265-3.434a.75.75 0 0 1 1.055.114z"/>
</symbol>
<symbol id="icon-moon" viewBox="0 0 24 24">
    <path d="M10.404.012c.858-.172 1.507.763 1.046 1.507-2.376 3.838-1.8 8.93 1.444 12.254 2.484 2.395 5.925 3.403 9.34 2.833a1 1 0 0 1 1.033 1.483c-.416.727-1.023 1.473-1.76 2.21a12.05 12.05 0 0 1-17.014 0c-4.69-4.69-4.69-12.324-.022-16.99l.272-.28A11.077 11.077 0 0 1 10.404.012zM8.69 2.67l-.22.106A9.19 9.19 0 0 0 5.908 4.7l-.21.216a10.05 10.05 0 0 0 .209 13.97 10.05 10.05 0 0 0 14.186 0l.123-.127-.212-.002a12.762 12.762 0 0 1-8.248-3.3l-.273-.256C8.2 11.816 7.187 6.95 8.665 2.737l.024-.068zm13.69.237c.94-.778 2.242.58 1.327 1.494l-.116.128c-.892 1.084-.853 3.488.116 4.457l.08.087c.778.94-.58 2.242-1.493 1.327l-.128-.116c-1.084-.892-3.488-.853-4.457.116l-.087.08c-.94.778-2.242-.58-1.327-1.494l.116-.128c.892-1.084.853-3.488-.116-4.457l-.08-.087c-.778-.94.58-2.242 1.494-1.327l.128.116c1.084.892 3.488.853 4.457-.116zM21.032 5.66l-.142.023a6.58 6.58 0 0 1-1.78 0l-.143-.023.023.144a6.58 6.58 0 0 1 0 1.78l-.023.143.143-.022a6.58 6.58 0 0 1 1.78 0l.142.022L21 7.582a6.58 6.58 0 0 1 0-1.78l.022-.144z"/>
</symbol>
<symbol id="icon-more" viewBox="0 0 12 12">
    <circle cx="6" cy="6" r="1.5"/>
    <circle cx="1.5" cy="6" r="1.5"/>
    <circle cx="10.5" cy="6" r="1.5"/>
</symbol>
<symbol id="icon-notification" viewBox="0 0 20 22">
    <path d="M12.837 19.268a.75.75 0 0 1 .114 1.055 3.53 3.53 0 0 1-.65.627 3.84 3.84 0 0 1-2.798.774 3.81 3.81 0 0 1-2.536-1.405.75.75 0 0 1 1.173-.935 2.31 2.31 0 0 0 1.538.849c.6.072 1.224-.098 1.715-.48a2.14 2.14 0 0 0 .388-.374.75.75 0 0 1 1.055-.114zM10.04.25c3.664 0 7.027 2.626 7.364 6.112l.01.13.014.264.006.3v.723l.005.332.01.21.048.2c.153.56.422 1.084.79 1.54l.164.19.067.085a4.28 4.28 0 0 1 .73 2.23l-.001.434a4.343 4.343 0 0 1-1.05 2.683 5.249 5.249 0 0 1-3.315 1.6 45.8 45.8 0 0 1-9.766.001 5.33 5.33 0 0 1-3.36-1.64 4.324 4.324 0 0 1-1.007-2.86l.001-.256a4.35 4.35 0 0 1 .726-2.197l.073-.093a4.12 4.12 0 0 0 1.01-1.957l-.016.065.003-.563.013-.652.046-.778C2.933 2.878 6.295.25 9.96.25zm0 1.5h-.08c-2.936 0-5.61 2.09-5.86 4.742l-.03.454-.017.502-.007.988-.016.152a5.62 5.62 0 0 1-1.377 2.67l.044-.05.01-.01-.096.157a2.84 2.84 0 0 0-.34 1l-.02.205v.235c-.015.685.22 1.353.625 1.844a3.81 3.81 0 0 0 2.392 1.145 44.36 44.36 0 0 0 9.467-.001 3.74 3.74 0 0 0 2.347-1.108 2.83 2.83 0 0 0 .667-1.906v-.176a2.76 2.76 0 0 0-.473-1.422l.017.027-.15-.174a5.695 5.695 0 0 1-1.102-2.147l-.07-.296-.014-.1-.007-.107-.013-.324-.003-.972-.002-.172-.012-.286-.01-.13c-.257-2.658-2.935-4.75-5.87-4.75z"/>
</symbol>
<symbol id="icon-overview" viewBox="0 0 21 22">
    <path d="M12.925 1.37a.75.75 0 0 1 .102 1.493l-.102.007H5.657c-2.455 0-4.034 1.626-4.125 4.16l-.004.233v8.082c0 2.602 1.483 4.284 3.906 4.38l.223.004h8.604c2.457 0 4.034-1.62 4.125-4.152l.004-.233v-7.04a.75.75 0 0 1 1.493-.102l.007.102v7.04c0 3.4-2.14 5.772-5.394 5.88l-.234.004H5.657c-3.33 0-5.525-2.3-5.625-5.644l-.004-.24v-8.08c0-3.392 2.142-5.78 5.394-5.9l.234-.004h7.268zM15.04 8.2a.75.75 0 0 1 .195.96l-.06.093-2.93 3.78a.75.75 0 0 1-.964.193l-.093-.062-2.82-2.214-2.53 3.3a.75.75 0 0 1-.959.198l-.093-.06a.75.75 0 0 1-.198-.959l.06-.093 2.993-3.9a.75.75 0 0 1 .965-.195l.093.062 2.82 2.215 2.467-3.183a.75.75 0 0 1 1.052-.134zM17.995.528a2.672 2.672 0 1 1 0 5.343 2.672 2.672 0 0 1 0-5.343zm0 1.5a1.172 1.172 0 1 0 0 2.345 1.172 1.172 0 0 0 0-2.345z"/>
</symbol>
<symbol id="icon-plus-square" viewBox="0 0 22 22">
    <path d="M15.686.25c3.645 0 6.064 2.598 6.064 6.335v8.83c0 3.738-2.419 6.335-6.066 6.335h-9.37C2.669 21.75.25 19.152.25 15.415v-8.83C.25 2.851 2.676.25 6.316.25zm0 1.5h-9.37c-2.788 0-4.566 1.907-4.566 4.835v8.83c0 2.932 1.772 4.835 4.564 4.835h9.37c2.794 0 4.566-1.903 4.566-4.835v-8.83c0-2.932-1.772-4.835-4.564-4.835zM11 14.663h1.5a1.5 1.5 0 0 1-1.5 1.5l-.144-.007A1.5 1.5 0 0 1 9.5 14.663H11zM14.667 9.5l.144.007a1.5 1.5 0 0 1-.144 2.993V11v1.5H12.5v2.162H11v-.01l-1.5.001V12.5H7.333l-.144-.007A1.5 1.5 0 0 1 5.833 11l.007-.144A1.5 1.5 0 0 1 7.333 9.5H9.5V7.327l.007-.144A1.5 1.5 0 0 1 11 5.827l.144.007A1.5 1.5 0 0 1 12.5 7.327V9.5h-.75v.739l.75.001V9.5h2.167zM12.5 11.74l-1.499-.001-.001.011h.75v.75h.75v-.76zm-2.25-.001l-.75.001v.76h.75v-.761zM11 10.24l-.75-.001v.011H11a.75.75 0 0 1-.75.75l.079-.005.023.002a.75.75 0 0 1 .641.641l.007.102.001-.001.006-.09a.75.75 0 0 1 .641-.642L11.75 11v-.01a.75.75 0 0 1-.75-.75zm-.75-.74H9.5v.74l.75-.001V9.5z"/>
</symbol>
<symbol id="icon-print" viewBox="0 0 18 18">
    <path d="M13.5 5.5a4 4 0 0 1 3.995 3.8l.005.2v4a1 1 0 0 1-.883.993l-.117.007h-2v2a1 1 0 0 1-.883.993l-.117.007h-9a1 1 0 0 1-1-1v-2h-2a1 1 0 0 1-.993-.883L.5 13.5v-4a4 4 0 0 1 3.8-3.995l.2-.005h9zm-1 6h-7v4h7v-4zm1-4h-9a2 2 0 0 0-1.995 1.851L2.5 9.5v3h1v-2a1 1 0 0 1 .883-.993L4.5 9.5h9a1 1 0 0 1 1 1v2h1v-3a2 2 0 0 0-1.851-1.995L13.5 7.5zm0-7a1 1 0 0 1 .993.883l.007.117v3a1 1 0 0 1-1.993.117L12.5 4.5v-2h-7v2a1 1 0 0 1-.883.993L4.5 5.5a1 1 0 0 1-.993-.883L3.5 4.5v-3a1 1 0 0 1 .883-.993L4.5.5h9z"/>
</symbol>
<symbol id="icon-profile" viewBox="0 0 17 21">
    <path d="M8.242 12.907l.33.001.323.004.626.017c4.296.162 6.714 1.202 6.714 3.704 0 2.737-2.89 3.706-7.992 3.706h-.33l-.64-.01C2.784 20.204.25 19.176.25 16.613c0-2.738 2.887-3.706 7.992-3.706zm0 1.5l-.343.002-.658.013-.622.026-.585.04-.548.052c-2.472.272-3.737.966-3.737 2.075 0 1.155 1.36 1.868 4.01 2.122l.566.046 1.917.06.676-.006.64-.02c3.418-.143 5.176-.874 5.176-2.18 0-1.155-1.36-1.868-4.01-2.122l-.566-.046-.603-.033-.64-.02-.675-.007zm0-14.157c2.99 0 5.392 2.4 5.392 5.392s-2.4 5.392-5.392 5.392S2.85 8.632 2.85 5.642 5.252.25 8.242.25zm0 1.5C6.08 1.75 4.35 3.48 4.35 5.642s1.73 3.892 3.892 3.892 3.892-1.73 3.892-3.892-1.73-3.892-3.892-3.892z"/>
</symbol>
<symbol id="icon-remove" viewBox="0 0 10 10">
    <path d="M1.613.21l.094.083L5 3.585 8.293.293a1 1 0 0 1 1.497 1.32l-.083.094L6.415 5l3.292 3.293a1 1 0 0 1-1.32 1.497l-.094-.083L5 6.415 1.707 9.707A1 1 0 0 1 .21 8.387l.083-.094L3.585 5 .293 1.707A1 1 0 0 1 1.613.21z"/>
</symbol>
<symbol id="icon-search" viewBox="0 0 20 20">
    <path fillRule="evenodd" d="M9.612 0C4.303 0 0 4.208 0 9.4c0 5.19 4.303 9.399 9.612 9.399 2.27 0 4.356-.77 6.001-2.058l3.124 3.048.083.07c.29.21.701.186.964-.072a.713.713 0 0 0-.002-1.023l-3.087-3.012A9.253 9.253 0 0 0 19.223 9.4C19.223 4.21 14.92 0 9.612 0zm0 1.448c4.49 0 8.13 3.56 8.13 7.951 0 4.392-3.64 7.952-8.13 7.952-4.491 0-8.132-3.56-8.132-7.952 0-4.391 3.64-7.951 8.132-7.951z"/>
</symbol>
<symbol id="icon-settings" viewBox="0 0 20 22">
    <path d="M10.797.528c.72 0 1.41.29 1.91.807s.773 1.213.75 1.864l.01.153c.018.15.067.296.146.43.155.264.41.456.705.533s.612.033.9-.142l.166-.086a2.666 2.666 0 0 1 3.44 1.08l.622 1.08a.75.75 0 0 1 .043.088l.058.116a2.66 2.66 0 0 1-.897 3.32l-.26.164c-.137.095-.25.22-.336.37-.155.265-.197.58-.118.878s.273.55.568.72l.17.11c.512.358.882.886 1.043 1.49a2.66 2.66 0 0 1-.276 2.028l-.67 1.115-.1.157c-.787 1.13-2.314 1.477-3.48.804l-.138-.07c-.144-.064-.3-.1-.44-.104a1.144 1.144 0 0 0-.82.338 1.18 1.18 0 0 0-.339.857l-.008.178a2.663 2.663 0 0 1-2.654 2.444H9.538c-1.47 0-2.663-1.192-2.662-2.616l-.01-.153a1.117 1.117 0 0 0-.15-.437c-.152-.265-.403-.458-.698-.537s-.61-.037-.913.14l-.18.1a2.666 2.666 0 0 1-3.414-1.125L.87 15.494l-.086-.166c-.59-1.244-.127-2.74 1.045-3.416l.107-.067c.313-.217.5-.574.5-.956 0-.416-.222-.8-.61-1.024l-.157-.1a2.668 2.668 0 0 1-.775-3.531l.66-1.083a2.654 2.654 0 0 1 3.606-.995l.135.072c.138.063.288.097.432.098.636 0 1.154-.51 1.164-1.165v-.2A2.655 2.655 0 0 1 9.535.529zm0 1.5H9.543c-.307 0-.6.122-.818.34a1.14 1.14 0 0 0-.33.685l-.014.316A2.664 2.664 0 0 1 5.72 5.827a2.61 2.61 0 0 1-1.085-.253l-.195-.103a1.166 1.166 0 0 0-1.595.444l-.66 1.083c-.302.524-.15 1.192.317 1.518l.265.168a2.66 2.66 0 0 1 1.17 2.206c0 .875-.43 1.693-1.173 2.206l-.158.1c-.52.3-.722.952-.48 1.464l.057.1.64 1.102c.15.27.402.47.7.555a1.15 1.15 0 0 0 .765-.044l.1-.054c.61-.356 1.335-.453 2.017-.27s1.262.63 1.606 1.23c.185.312.302.66.348 1.06l.02.366a1.163 1.163 0 0 0 1.156 1.036h1.254c.606 0 1.1-.466 1.157-1.037l.006-.113c-.003-.708.276-1.388.777-1.89s1.18-.78 1.906-.777c.356.01.705.09 1.063.25l.32.164c.503.22 1.1.06 1.403-.374l.074-.115.654-1.1c.155-.265.197-.582.118-.878a1.14 1.14 0 0 0-.426-.63l-.114-.073a2.645 2.645 0 0 1-1.24-1.617 2.65 2.65 0 0 1 .268-2.015c.193-.337.46-.627.805-.867l.163-.103c.52-.304.72-.954.48-1.468l-.072-.138-.013-.03-.594-1.03a1.164 1.164 0 0 0-1.36-.532l-.113.045-.105.053a2.649 2.649 0 0 1-2.014.282 2.65 2.65 0 0 1-1.62-1.223 2.63 2.63 0 0 1-.348-1.058l-.013-.26c.01-.314-.11-.62-.33-.844s-.52-.352-.835-.352zm-.622 5.475a3.386 3.386 0 1 1-.002 6.77 3.386 3.386 0 0 1 .003-6.769zm0 1.5a1.885 1.885 0 1 0-.001 3.771 1.885 1.885 0 0 0 .001-3.771z"/>
</symbol>
<symbol id="icon-star" viewBox="0 0 12 12">
    <path d="M11.358 4.078l-3.237-.47L6.673.675C6.419.163 5.58.163 5.327.675L3.88 3.608l-3.238.47a.751.751 0 0 0-.415 1.28L2.57 7.643l-.553 3.224a.75.75 0 0 0 1.088.79L6 10.134l2.896 1.523a.751.751 0 0 0 1.088-.79l-.553-3.225 2.343-2.283a.752.752 0 0 0-.416-1.28z"/>
</symbol>
<symbol id="icon-sun" viewBox="0 0 24 24">
    <path d="M12 21a1 1 0 0 1 .993.883L13 22v1a1 1 0 0 1-1.993.117L11 23v-1a1 1 0 0 1 1-1zm7.713-2.7l.094.083.7.7a1 1 0 0 1-1.32 1.497l-.094-.083-.7-.7a1 1 0 0 1 1.32-1.497zm-14.106.083a1 1 0 0 1 .083 1.32l-.083.094-.7.7a1 1 0 0 1-1.497-1.32l.083-.094.7-.7a1 1 0 0 1 1.414 0zM12 6a6 6 0 1 1 0 12 6 6 0 1 1 0-12zm0 2a4 4 0 1 0 0 8 4 4 0 1 0 0-8zM2 11a1 1 0 0 1 .117 1.993L2 13H1a1 1 0 0 1-.117-1.993L1 11h1zm21 0a1 1 0 0 1 .117 1.993L23 13h-1a1 1 0 0 1-.117-1.993L22 11h1zM4.813 3.4l.094.083.7.7a1 1 0 0 1-1.32 1.497l-.094-.083-.7-.7A1 1 0 0 1 4.813 3.4zm15.694.083a1 1 0 0 1 .083 1.32l-.083.094-.7.7a1 1 0 0 1-1.497-1.32l.083-.094.7-.7a1 1 0 0 1 1.414 0zM12 0a1 1 0 0 1 .993.883L13 1v1a1 1 0 0 1-1.993.117L11 2V1a1 1 0 0 1 1-1z"/>
</symbol>
<symbol id="icon-wallet" viewBox="0 0 22 20">
    <path d="M15.39.25a6 6 0 0 1 5.998 5.998v7.177a6 6 0 0 1-5.998 5.998H6.747A6 6 0 0 1 .75 13.425V6.248A6 6 0 0 1 6.748.25zm0 1.5H6.748A4.5 4.5 0 0 0 2.25 6.248v7.177a4.5 4.5 0 0 0 4.498 4.498h8.643a4.5 4.5 0 0 0 4.498-4.498l-.001-.28-3.298.001a3.443 3.443 0 0 1-3.442-3.44 3.442 3.442 0 0 1 3.253-3.436l.19-.005h3.297l.001-.015a4.5 4.5 0 0 0-4.286-4.493l-.212-.005zm4.497 6.013H16.59a1.943 1.943 0 0 0-1.943 1.94 1.946 1.946 0 0 0 1.8 1.936l.152.006 3.297-.001V7.763zm-2.84 1.13a.75.75 0 0 1 .102 1.493l-.102.007h-.312a.75.75 0 0 1-.102-1.493l.102-.007h.312zm-5.614-4.105a.75.75 0 0 1 .102 1.493l-.102.007h-5.4a.75.75 0 0 1-.102-1.493l.102-.007h5.4z"/>
</symbol></svg>